<?xml version="1.0" encoding="utf-8"?>
<!-- Generator: Adobe Illustrator 16.0.0, SVG Export Plug-In . SVG Version: 6.00 Build 0)  -->
<!DOCTYPE svg PUBLIC "-//W3C//DTD SVG 1.1//EN" "http://www.w3.org/Graphics/SVG/1.1/DTD/svg11.dtd">
<svg version="1.1" id="Layer_1" xmlns="http://www.w3.org/2000/svg" xmlns:xlink="http://www.w3.org/1999/xlink" x="0px" y="0px"
	 width="250px" height="250px" viewBox="0 0 250 250" enable-background="new 0 0 250 250" xml:space="preserve">
<g transform="translate(0.000000,250.000000) scale(0.100000,-0.100000)">
	<g id="XMLID_1_">
		<g>
			<path fill="#007EE6" d="M2500,1250V0H1250H0v1250v1250h1250h1250V1250z M1912.998,1170c5,4.004-52.998,57.998-127.998,120
				c-107.002,90-132.998,116.001-122.998,125c7.002,6.001,67.998,57.998,135.996,115c100,83.999,121.006,105,110,115
				c-25.996,26.001-370.996,257.998-382.998,258.999c-7.002,0-72.002-50-142.998-111.997
				C1310.703,1729.599,1249.199,1680,1243.198,1680c-0.098,0-0.2,0-0.2,0c-3.999,1.001-65.996,52.002-135.996,112.998
				c-71.001,62.002-132.002,113.003-136.001,115c-7.002,2.002-363.003-236.997-388.999-261.997
				c-11.001-11.001,10.996-33.003,115-122.002c70.996-60,128.999-112.998,128.999-118.999c0-5-58.003-58.999-128.003-118.999
				c-70.996-60.005-125-111.997-120.996-116.001c16.997-15.996,375-260.996,385.996-265c7.002-2.998,73.003,49.004,147.002,115
				c88.901,78.799,122.202,105.703,138.799,108.799c4.8,0.898,8.203-0.303,11.201-2.803c7.998-6.992,70-60.996,137.002-120
				c80-70.996,127.002-105,135-100C1550.996,917.002,1902.998,1160.996,1912.998,1170z M1650,844.004v47.998
				c0,25.996-2.002,47.998-5,47.998s-30-17.998-59.004-40c-28.994-22.002-55.996-40-60-40c-5,0-57.998,42.998-120,97.002
				C1345,1010,1284.004,1064.004,1270,1075.996l-25,23.008L1107.998,980c-75-65.996-138.999-120-141.997-120
				c-3.003,0-28.003,15.996-55,35c-66.001,47.998-75,45.996-66.001-12.002c3.999-27.002,7.998-47.998,7.998-48.994
				c111.001-74.004,389.004-245,395-242.002c5,2.002,97.002,58.994,205,127.002L1650,844.004z"/>
			<path fill="#FFFFFF" d="M1785,1290c75-62.002,132.998-115.996,127.998-120c-10-9.004-362.002-252.998-380.996-264.004
				c-7.998-5-55,29.004-135,100C1330,1065,1267.998,1119.004,1260,1125.996c-2.998,2.5-6.401,3.701-11.201,2.803l-3.799,28.203
				c10.996,0,350.996,216.997,372.998,237.998c11.006,10-22.002,35-170,132.002c-100.996,65.996-187.998,121.997-193.999,125.996
				c-0.4,0.2-1.001,0.2-1.899,0l-8.901,27.002c6.001,0,67.505,49.6,138.804,112.002c70.996,61.997,135.996,111.997,142.998,111.997
				c12.002-1.001,357.002-232.998,382.998-258.999c11.006-10-10-31.001-110-115c-67.998-57.002-128.994-108.999-135.996-115
				C1652.002,1406.001,1677.998,1380,1785,1290z"/>
			<path fill="#FFFFFF" d="M1650,892.002v-47.998l-197.002-125c-107.998-68.008-200-125-205-127.002
				c-5.996-2.998-283.999,167.998-395,242.002c0,0.996-3.999,21.992-7.998,48.994c-8.999,57.998,0,60,66.001,12.002
				c26.997-19.004,51.997-35,55-35c2.998,0,66.997,54.004,141.997,120L1245,1099.004l25-23.008
				c14.004-11.992,75-65.996,135.996-118.994c62.002-54.004,115-97.002,120-97.002c4.004,0,31.006,17.998,60,40
				c29.004,22.002,56.006,40,59.004,40S1650,917.998,1650,892.002z"/>
			<path fill="#007EE6" d="M1447.998,1527.002C1595.996,1430,1629.004,1405,1617.998,1395
				c-22.002-21.001-362.002-237.998-372.998-237.998c-18.999,0-386.001,245.996-377.998,253.999
				c3.999,3.999,90.996,61.001,191.997,127.998c95.103,62.1,178.701,111.001,193.101,113.999c0.898,0.2,1.499,0.2,1.899,0
				C1260,1648.999,1347.002,1592.998,1447.998,1527.002z"/>
			<path fill="#FFFFFF" d="M1243.198,1680l8.901-27.002c-14.399-2.998-97.998-51.899-193.101-113.999
				C957.998,1472.002,871.001,1415,867.002,1411.001c-8.003-8.003,358.999-253.999,377.998-253.999l3.799-28.203
				c-16.597-3.096-49.897-30-138.799-108.799c-73.999-65.996-140-117.998-147.002-115c-10.996,4.004-368.999,249.004-385.996,265
				c-4.004,4.004,50,55.996,120.996,116.001c70,60,128.003,113.999,128.003,118.999c0,6.001-58.003,58.999-128.999,118.999
				c-104.004,88.999-126.001,111.001-115,122.002c25.996,25,381.997,263.999,388.999,261.997c3.999-1.997,65-52.998,136.001-115
				c70-60.996,131.997-111.997,135.996-112.998C1242.998,1680,1243.1,1680,1243.198,1680z"/>
		</g>
		<g>
		</g>
	</g>
</g>
</svg>
