<?xml version="1.0" encoding="utf-8"?>
<!-- Generator: Adobe Illustrator 16.0.0, SVG Export Plug-In . SVG Version: 6.00 Build 0)  -->
<!DOCTYPE svg PUBLIC "-//W3C//DTD SVG 1.1//EN" "http://www.w3.org/Graphics/SVG/1.1/DTD/svg11.dtd">
<svg version="1.1" xmlns="http://www.w3.org/2000/svg" xmlns:xlink="http://www.w3.org/1999/xlink" x="0px" y="0px" width="500px"
	 height="500px" viewBox="0 0 500 500" enable-background="new 0 0 500 500" xml:space="preserve">
<g id="Layer_2">
	<rect fill="#FFFFFF" width="500" height="500"/>
</g>
<g id="Layer_1">
	<g>
		<g id="XMLID_1_">
			<g>
				<path fill="#404040" d="M394.53,160.35c-7.95,11.89-18,22.34-29.602,30.7c0.12,2.54,0.182,5.1,0.182,7.67
					c0,78.37-59.65,168.74-168.73,168.74c-33.49,0-64.67-9.819-90.91-26.649c4.63,0.551,9.36,0.83,14.15,0.83
					c27.78,0,53.35-9.479,73.64-25.381c-25.94-0.479-47.84-17.63-55.4-41.189c3.63,0.689,7.35,1.07,11.16,1.07
					c5.41,0,10.65-0.729,15.63-2.08c-27.13-5.461-47.57-29.431-47.57-58.161c0-0.25,0-0.5,0-0.75c8,4.45,17.14,7.11,26.86,7.42
					c-15.91-10.63-26.38-28.79-26.38-49.36c0-10.87,2.93-21.06,8.03-29.82c29.25,35.88,72.95,59.49,122.23,61.97
					c-1-4.34-1.53-8.87-1.53-13.52c0-32.74,26.56-59.3,59.31-59.3c17.062,0,32.46,7.2,43.29,18.72c13.5-2.65,26.2-7.59,37.65-14.38
					c-4.42,13.85-13.83,25.47-26.07,32.81C372.46,168.25,383.9,165.06,394.53,160.35z"/>
			</g>
		</g>
	</g>
</g>
</svg>
