<?xml version="1.0" encoding="utf-8"?>
<!-- Generator: Adobe Illustrator 16.0.0, SVG Export Plug-In . SVG Version: 6.00 Build 0)  -->
<!DOCTYPE svg PUBLIC "-//W3C//DTD SVG 1.1//EN" "http://www.w3.org/Graphics/SVG/1.1/DTD/svg11.dtd">
<svg version="1.1" id="Layer_1" xmlns="http://www.w3.org/2000/svg" xmlns:xlink="http://www.w3.org/1999/xlink" x="0px" y="0px"
	 width="500px" height="500px" viewBox="0 0 500 500" enable-background="new 0 0 500 500" xml:space="preserve">
<path fill="#00ACEE" d="M0,0c0,111.929,0,361.93,0,500c0,0,361.93,0,500,0c0,0,0-361.93,0-500H0z"/>
<g id="XMLID_1_">
	<g>
		<path fill="#FFFFFF" d="M394.528,160.352c-7.952,11.888-18,22.336-29.594,30.696c0.12,2.544,0.178,5.104,0.178,7.672
			c0,78.369-59.648,168.736-168.736,168.736c-33.488,0-64.664-9.815-90.904-26.647c4.632,0.553,9.36,0.832,14.144,0.832
			c27.784,0,53.352-9.479,73.648-25.384c-25.944-0.479-47.848-17.624-55.4-41.185c3.624,0.688,7.344,1.063,11.16,1.063
			c5.408,0,10.648-0.729,15.624-2.079c-27.128-5.457-47.568-29.425-47.568-58.153c0-0.256,0-0.504,0-0.752
			c8,4.448,17.144,7.112,26.864,7.416c-15.912-10.632-26.384-28.784-26.384-49.36c0-10.864,2.928-21.056,8.032-29.816
			c29.248,35.88,72.944,59.488,122.232,61.968c-1.008-4.344-1.536-8.872-1.536-13.52c0-32.744,26.56-59.296,59.312-59.296
			c17.058,0,32.465,7.2,43.288,18.72c13.504-2.656,26.2-7.592,37.656-14.384c-4.424,13.848-13.832,25.472-26.072,32.808
			C372.464,168.255,383.896,165.063,394.528,160.352z"/>
	</g>
</g>
</svg>
